<?xml version="1.0" encoding="UTF-8"?>
<svg width="30px" height="30px" viewBox="0 0 30 30" version="1.1" xmlns="http://www.w3.org/2000/svg" xmlns:xlink="http://www.w3.org/1999/xlink">
    <!-- Generator: Sketch 48.2 (47327) - http://www.bohemiancoding.com/sketch -->
    <title>facebook</title>
    <desc>Created with Sketch.</desc>
    <defs></defs>
    <g id="assets" stroke="none" stroke-width="1" fill="none" fill-rule="evenodd">
        <g id="facebook" fill="#FFFFFF">
            <path d="M20.625,6 C21.5546921,6 22.3496061,6.33007482 23.0097656,6.99023438 C23.6699252,7.65039393 24,8.44530785 24,9.375 L24,20.625 C24,21.5546921 23.6699252,22.3496061 23.0097656,23.0097656 C22.3496061,23.6699252 21.5546921,24 20.625,24 L18.421875,24 L18.421875,17.0273438 L20.7539062,17.0273438 L21.1054688,14.3085938 L18.421875,14.3085938 L18.421875,12.5742188 C18.421875,12.1367166 18.513671,11.8085948 18.6972656,11.5898438 C18.8808603,11.3710927 19.2382786,11.2617188 19.7695312,11.2617188 L21.1992188,11.25 L21.1992188,8.82421875 C20.7070288,8.7539059 20.0117232,8.71875 19.1132812,8.71875 C18.0507759,8.71875 17.2011751,9.03124688 16.5644531,9.65625 C15.9277312,10.2812531 15.609375,11.1640568 15.609375,12.3046875 L15.609375,14.3085938 L13.265625,14.3085938 L13.265625,17.0273438 L15.609375,17.0273438 L15.609375,24 L9.375,24 C8.44530785,24 7.65039393,23.6699252 6.99023438,23.0097656 C6.33007482,22.3496061 6,21.5546921 6,20.625 L6,9.375 C6,8.44530785 6.33007482,7.65039393 6.99023438,6.99023438 C7.65039393,6.33007482 8.44530785,6 9.375,6 L20.625,6 Z" id="facebook-square---FontAwesome"></path>
        </g>
    </g>
</svg>