<?xml version="1.0" encoding="UTF-8"?>
<svg width="30px" height="30px" viewBox="0 0 30 30" version="1.1" xmlns="http://www.w3.org/2000/svg" xmlns:xlink="http://www.w3.org/1999/xlink">
    <!-- Generator: Sketch 48.2 (47327) - http://www.bohemiancoding.com/sketch -->
    <title>insta</title>
    <desc>Created with Sketch.</desc>
    <defs></defs>
    <g id="assets" stroke="none" stroke-width="1" fill="none" fill-rule="evenodd">
        <g id="insta" fill="#FFFFFF">
            <path d="M15,19.1666667 C12.2222083,19.1666667 10.8333333,17.7777917 10.8333333,15 C10.8333333,12.2222083 12.2222083,10.8333333 15,10.8333333 C17.7777917,10.8333333 19.1666667,12.2222083 19.1666667,15 C19.1666667,17.7777917 17.7777917,19.1666667 15,19.1666667 Z M10.8854167,10.8854167 C10.1562464,11.614587 9.6701401,12.430551 9.42708333,13.3333333 L5,13.3333333 L5,7.5 C5,6.77082969 5.24305313,6.18055781 5.72916667,5.72916667 C6.284725,5.24305312 6.89235781,5 7.55208333,5 L22.5520833,5 C23.2118089,5 23.7847198,5.24305312 24.2708333,5.72916667 C24.7569469,6.21528021 25,6.80555208 25,7.5 L25,13.3333333 L20.625,13.3333333 C20.3819432,12.430551 19.895837,11.614587 19.1666667,10.8854167 C18.0208276,9.7395776 16.6319526,9.16666667 15,9.16666667 C13.4027698,9.16666667 12.0312557,9.7395776 10.8854167,10.8854167 Z M23.3333333,9.375 L23.3333333,7.34375 C23.3333333,7.17013802 23.2638896,7.01388958 23.125,6.875 C22.9861104,6.73611042 22.829862,6.66666667 22.65625,6.66666667 L20.6770833,6.66666667 C20.5034714,6.66666667 20.3472229,6.73611042 20.2083333,6.875 C20.0694438,7.01388958 20,7.17013802 20,7.34375 L20,9.375 C20,9.54861198 20.0694438,9.70486042 20.2083333,9.84375 C20.3125005,9.94791719 20.468749,10 20.6770833,10 L22.65625,10 C22.8645844,10 23.0208328,9.94791719 23.125,9.84375 C23.2638896,9.70486042 23.3333333,9.54861198 23.3333333,9.375 Z M19.1666667,19.1145833 C20.2777833,18.0034667 20.8333333,16.6319526 20.8333333,15 L25,15 L25,22.5 C25,23.1250031 24.7569469,23.715275 24.2708333,24.2708333 C23.8194422,24.7569469 23.2465313,25 22.5520833,25 L7.55208333,25 C6.85763542,25 6.26736354,24.7569469 5.78125,24.2708333 C5.26041406,23.7499974 5,23.1597255 5,22.5 L5,15 L9.21875,15 C9.21875,16.6319526 9.7743,18.0034667 10.8854167,19.1145833 C12.0312557,20.2604224 13.4027698,20.8333333 15,20.8333333 C16.6319526,20.8333333 18.0208276,20.2604224 19.1666667,19.1145833 Z" id="ion-social-instagram---Ionicons"></path>
        </g>
    </g>
</svg>