<?xml version="1.0" encoding="UTF-8"?>
<svg width="30px" height="30px" viewBox="0 0 30 30" version="1.1" xmlns="http://www.w3.org/2000/svg" xmlns:xlink="http://www.w3.org/1999/xlink">
    <!-- Generator: Sketch 48.2 (47327) - http://www.bohemiancoding.com/sketch -->
    <title>reply-lyellow</title>
    <desc>Created with Sketch.</desc>
    <defs></defs>
    <g id="assets" stroke="none" stroke-width="1" fill="none" fill-rule="evenodd">
        <g id="reply-lyellow" fill="#FFDC60">
            <path d="M27,18.5535714 C27,19.9739654 26.4566647,21.9034476 25.3699777,24.3420759 C25.3443079,24.401972 25.2993865,24.5046496 25.2352121,24.6501116 C25.1710376,24.7955736 25.1132815,24.9239206 25.061942,25.0351562 C25.0106024,25.1463919 24.9549854,25.240513 24.8950893,25.3175223 C24.7924102,25.4629844 24.6726197,25.5357143 24.5357143,25.5357143 C24.4073654,25.5357143 24.306827,25.492932 24.234096,25.4073661 C24.161365,25.3218002 24.125,25.2148444 24.125,25.0864955 C24.125,25.0094862 24.1356956,24.8961131 24.1570871,24.7463728 C24.1784785,24.5966324 24.1891741,24.496094 24.1891741,24.4447545 C24.2319571,23.8629063 24.2533482,23.3366839 24.2533482,22.8660714 C24.2533482,22.0018558 24.1784792,21.227496 24.0287388,20.5429688 C23.8789985,19.8584415 23.6715043,19.2659065 23.40625,18.765346 C23.1409957,18.2647854 22.7987372,17.8326841 22.3794643,17.469029 C21.9601914,17.1053739 21.508838,16.8080369 21.0253906,16.5770089 C20.5419433,16.345981 19.9729385,16.1641562 19.3183594,16.031529 C18.6637802,15.8989019 18.0049326,15.8069199 17.3417969,15.7555804 C16.6786611,15.7042408 15.9278316,15.6785714 15.0892857,15.6785714 L12.2142857,15.6785714 L12.2142857,18.9642857 C12.2142857,19.1867571 12.1329993,19.3792775 11.9704241,19.5418527 C11.8078489,19.7044279 11.6153285,19.7857143 11.3928571,19.7857143 C11.1703858,19.7857143 10.9778654,19.7044279 10.8152902,19.5418527 L4.24386161,12.9704241 C4.08128639,12.8078489 4,12.6153285 4,12.3928571 C4,12.1703858 4.08128639,11.9778654 4.24386161,11.8152902 L10.8152902,5.24386161 C10.9778654,5.08128639 11.1703858,5 11.3928571,5 C11.6153285,5 11.8078489,5.08128639 11.9704241,5.24386161 C12.1329993,5.40643682 12.2142857,5.59895722 12.2142857,5.82142857 L12.2142857,9.10714286 L15.0892857,9.10714286 C21.1901347,9.10714286 24.9335868,10.83127 26.3197545,14.2795759 C26.7732538,15.426159 27,16.8508099 27,18.5535714 Z" id="reply---FontAwesome"></path>
        </g>
    </g>
</svg>