<?xml version="1.0" encoding="UTF-8"?>
<svg width="30px" height="30px" viewBox="0 0 30 30" version="1.1" xmlns="http://www.w3.org/2000/svg" xmlns:xlink="http://www.w3.org/1999/xlink">
    <!-- Generator: Sketch 48.2 (47327) - http://www.bohemiancoding.com/sketch -->
    <title>soundcloud</title>
    <desc>Created with Sketch.</desc>
    <defs></defs>
    <g id="assets" stroke="none" stroke-width="1" fill="none" fill-rule="evenodd">
        <g id="soundcloud" fill="#FFFFFF">
            <path d="M26.9101562,16.8613281 C26.9101562,17.8496143 26.5582717,18.691891 25.8544922,19.3881836 C25.1507126,20.0844761 24.3046924,20.4326172 23.3164062,20.4326172 L21.9013672,20.4326172 C21.6917307,20.4326172 21.5195319,20.365235 21.3847656,20.2304688 C21.2499993,20.0957025 21.1826172,19.9235037 21.1826172,19.7138672 C21.1826172,19.6689451 21.1863606,19.6277671 21.1938477,19.590332 C21.2013347,19.5528969 21.212565,19.5154624 21.2275391,19.4780273 C21.2425131,19.4405923 21.2612304,19.4031577 21.2836914,19.3657227 C21.3061525,19.3282876 21.3286132,19.2945965 21.3510742,19.2646484 C21.3735353,19.2347004 21.3997394,19.2047528 21.4296875,19.1748047 C21.4596356,19.1448566 21.4933266,19.1223959 21.5307617,19.1074219 L21.6430664,19.0625 C21.6805015,19.047526 21.7216795,19.0362956 21.7666016,19.0288086 C21.8115237,19.0213216 21.8564451,19.0175781 21.9013672,19.0175781 L23.3164062,19.0175781 C23.7057311,19.0175781 24.0651025,18.9202484 24.3945312,18.7255859 C24.72396,18.5309235 24.9860016,18.2688819 25.1806641,17.9394531 C25.3753265,17.6100244 25.4726562,17.250653 25.4726562,16.8613281 C25.4726562,16.6217436 25.4352217,16.393393 25.3603516,16.1762695 C25.2854814,15.959146 25.1844082,15.7644865 25.0571289,15.5922852 C24.9298496,15.4200838 24.7763681,15.2666022 24.5966797,15.1318359 C24.4169913,14.9970696 24.2185883,14.892253 24.0014648,14.8173828 C23.7843414,14.7425126 23.5559908,14.7050781 23.3164062,14.7050781 C23.0169256,14.7050781 22.7286798,14.6451829 22.4516602,14.5253906 C22.1746405,14.4055984 21.9388031,14.2408865 21.7441406,14.03125 C21.5494782,13.8216135 21.3997401,13.5745457 21.2949219,13.2900391 L21.2949219,13.2675781 C21.1002594,12.758461 20.823244,12.2942729 20.4638672,11.875 C20.1044904,11.4557271 19.6739934,11.1225598 19.1723633,10.8754883 C18.6707332,10.6284167 18.1354195,10.4824221 17.5664062,10.4375 C17.43164,10.4375 17.3155929,10.4711911 17.2182617,10.5385742 C17.1209305,10.6059574 17.042318,10.6920568 16.9824219,10.796875 C16.9225257,10.9016932 16.8925781,11.0139968 16.8925781,11.1337891 L16.8925781,19.7138672 C16.8925781,19.8186854 16.8738609,19.9122717 16.8364258,19.9946289 C16.7989907,20.0769861 16.7465824,20.1518551 16.6791992,20.2192383 C16.6118161,20.2866214 16.5332036,20.3390298 16.4433594,20.3764648 C16.3535152,20.4138999 16.2636723,20.4326172 16.1738281,20.4326172 C15.9791657,20.4326172 15.8107103,20.3614916 15.668457,20.2192383 C15.5262037,20.076985 15.4550781,19.9085296 15.4550781,19.7138672 L15.4550781,11.1337891 C15.4550781,10.9091786 15.4925126,10.6883149 15.5673828,10.4711914 C15.642253,10.2540679 15.7433262,10.0594084 15.8706055,9.88720703 C15.9978848,9.71500565 16.1476228,9.56152411 16.3198242,9.42675781 C16.4920256,9.29199151 16.6866851,9.18717485 16.9038086,9.11230469 C17.1209321,9.03743452 17.3492827,9 17.5888672,9 C18.7418677,9.05989613 19.7750605,9.4379848 20.6884766,10.1342773 C21.6018926,10.8305699 22.2457664,11.7102811 22.6201172,12.7734375 L22.6425781,12.7958984 C22.7473964,13.1253272 22.9720035,13.2900391 23.3164062,13.2900391 L23.4736328,13.2900391 C24.4319709,13.3199871 25.2443001,13.683102 25.9106445,14.3793945 C26.576989,15.0756871 26.9101562,15.90299 26.9101562,16.8613281 Z M13.8154297,20.2304688 C13.6806634,20.365235 13.512208,20.4326172 13.3100586,20.4326172 C13.1079091,20.4326172 12.9394538,20.365235 12.8046875,20.2304688 C12.6699212,20.0957025 12.6025391,19.9235037 12.6025391,19.7138672 L12.6025391,11.8525391 C12.6025391,11.6578766 12.6699212,11.4894213 12.8046875,11.347168 C12.9394538,11.2049147 13.1079091,11.1337891 13.3100586,11.1337891 C13.512208,11.1337891 13.6806634,11.2049147 13.8154297,11.347168 C13.950196,11.4894213 14.0175781,11.6578766 14.0175781,11.8525391 L14.0175781,19.7138672 C14.0175781,19.9085296 13.950196,20.0807284 13.8154297,20.2304688 Z M10.4462891,20.4326172 C10.2516266,20.4326172 10.0831713,20.365235 9.94091797,20.2304688 C9.79866465,20.0957025 9.72753906,19.9235037 9.72753906,19.7138672 L9.72753906,11.4931641 C9.72753906,11.2985016 9.79866465,11.1300463 9.94091797,10.987793 C10.0831713,10.8455397 10.2516266,10.7744141 10.4462891,10.7744141 C10.5660813,10.7744141 10.6821283,10.8043617 10.7944336,10.8642578 C10.9067388,10.9241539 10.9965817,11.0102533 11.0639648,11.1225586 C11.131348,11.2348638 11.1650391,11.3583978 11.1650391,11.4931641 L11.1650391,19.7138672 C11.1650391,19.9085296 11.0939135,20.076985 10.9516602,20.2192383 C10.8094068,20.3614916 10.6409515,20.4326172 10.4462891,20.4326172 Z M7.57128906,20.4326172 C7.4964189,20.4326172 7.42154985,20.4213868 7.34667969,20.3989258 C7.27180952,20.3764647 7.20817083,20.3427737 7.15576172,20.2978516 C7.1033526,20.2529295 7.05468772,20.2005211 7.00976562,20.140625 C6.96484353,20.0807289 6.93115246,20.0170902 6.90869141,19.949707 C6.88623036,19.8823239 6.875,19.8037114 6.875,19.7138672 L6.875,13.9863281 C6.875,13.926432 6.8824869,13.8665368 6.89746094,13.8066406 C6.91243497,13.7467445 6.93489568,13.6905927 6.96484375,13.6381836 C6.99479182,13.5857745 7.03222634,13.5371096 7.07714844,13.4921875 C7.12207054,13.4472654 7.17073542,13.4098309 7.22314453,13.3798828 C7.27555365,13.3499347 7.33170543,13.327474 7.39160156,13.3125 C7.4514977,13.297526 7.51139293,13.2900391 7.57128906,13.2900391 C7.78092553,13.2900391 7.95312433,13.3574212 8.08789062,13.4921875 C8.22265692,13.6269538 8.29003906,13.7916657 8.29003906,13.9863281 L8.29003906,19.7138672 C8.29003906,19.9085296 8.22265692,20.076985 8.08789062,20.2192383 C7.95312433,20.3614916 7.78092553,20.4326172 7.57128906,20.4326172 Z M5.21289062,18.7929688 C5.07812433,18.927735 4.91341243,18.9951172 4.71875,18.9951172 C4.52408757,18.9951172 4.35563222,18.927735 4.21337891,18.7929688 C4.07112559,18.6582025 4,18.4934906 4,18.2988281 L4,15.4238281 C4,15.2291657 4.07112559,15.0607103 4.21337891,14.918457 C4.35563222,14.7762037 4.52408757,14.7050781 4.71875,14.7050781 C4.8535163,14.7050781 4.97330677,14.7387692 5.078125,14.8061523 C5.18294323,14.8735355 5.26904263,14.9633783 5.33642578,15.0756836 C5.40380893,15.1879888 5.4375,15.3040359 5.4375,15.4238281 L5.4375,18.2988281 C5.4375,18.4934906 5.36263096,18.6582025 5.21289062,18.7929688 Z M19.0263672,18.9951172 C19.2210296,18.9951172 19.389485,19.0662428 19.5317383,19.2084961 C19.6739916,19.3507494 19.7451172,19.5192048 19.7451172,19.7138672 C19.7451172,19.9085296 19.6739916,20.076985 19.5317383,20.2192383 C19.389485,20.3614916 19.2210296,20.4326172 19.0263672,20.4326172 C18.9065749,20.4326172 18.7905279,20.3989261 18.6782227,20.331543 C18.5659174,20.2641598 18.4760746,20.1780604 18.4086914,20.0732422 C18.3413083,19.968424 18.3076172,19.8523769 18.3076172,19.7250977 C18.3076172,19.5978184 18.3413083,19.4780279 18.4086914,19.3657227 C18.4760746,19.2534174 18.5659174,19.1635746 18.6782227,19.0961914 C18.7905279,19.0288083 18.9065749,18.9951172 19.0263672,18.9951172 Z" id=""></path>
        </g>
    </g>
</svg>