<?xml version="1.0" encoding="UTF-8"?>
<svg width="30px" height="30px" viewBox="0 0 30 30" version="1.1" xmlns="http://www.w3.org/2000/svg" xmlns:xlink="http://www.w3.org/1999/xlink">
    <!-- Generator: Sketch 48.2 (47327) - http://www.bohemiancoding.com/sketch -->
    <title>twitter</title>
    <desc>Created with Sketch.</desc>
    <defs></defs>
    <g id="assets" stroke="none" stroke-width="1" fill="none" fill-rule="evenodd">
        <g id="twitter" fill="#FFFFFF">
            <path d="M27.0056258,7.33953133 C26.3953103,8.28891111 25.5815684,9.13655892 24.5643758,9.88250017 L24.5643758,10.4928127 C24.5643758,14.0529869 23.2844276,17.282525 20.7244928,20.181524 C18.164558,23.0805229 14.7654904,24.5300007 10.5271878,24.5300007 C7.81467411,24.5300007 5.30563661,23.7840706 3,22.2921881 C3.54250273,22.3600009 3.93242072,22.3939069 4.16976567,22.3939069 C6.44149585,22.3939069 8.47585058,21.6818827 10.2728909,20.257813 C9.22179184,20.2239066 8.2724263,19.893324 7.42476578,19.2660552 C6.57710526,18.6387864 6.00070476,17.833521 5.69554697,16.8502348 C6.10242402,16.9180476 6.40757723,16.9519535 6.61101575,16.9519535 C6.95007996,16.9519535 7.39085682,16.8841417 7.93335955,16.748516 C6.81444766,16.5111711 5.8735586,15.9432471 5.11066414,15.0447269 C4.34776967,14.1462068 3.96632816,13.1036 3.96632816,11.9168752 L3.96632816,11.8660159 C4.71226941,12.2728929 5.45819948,12.4763284 6.20414074,12.4763284 C4.74616465,11.5269486 4.01718754,10.1537592 4.01718754,8.35671887 C4.01718754,7.50905835 4.23757596,6.69531646 4.67835943,5.91546878 C7.28915383,9.13657875 10.6627921,10.8488273 14.7993754,11.0522658 C14.7315626,10.8149209 14.6976567,10.4419559 14.6976567,9.93335955 C14.6976567,8.5431963 15.1723394,7.37344233 16.1217192,6.42406255 C17.071099,5.47468277 18.240853,5 19.6310162,5 C21.0211795,5 22.2078864,5.52554164 23.1911726,6.57664068 C24.2083652,6.40710858 25.2594485,6.00023763 26.3444539,5.35601564 C26.0053897,6.54274036 25.2764126,7.45819999 24.1575007,8.10242198 C25.2085998,8.00070272 26.1579653,7.74640838 27.0056258,7.33953133 Z" id="ion-social-twitter---Ionicons"></path>
        </g>
    </g>
</svg>