<?xml version="1.0" encoding="UTF-8"?>
<svg width="605px" height="445px" viewBox="0 0 605 445" version="1.1" xmlns="http://www.w3.org/2000/svg" xmlns:xlink="http://www.w3.org/1999/xlink">
    <!-- Generator: Sketch 48.2 (47327) - http://www.bohemiancoding.com/sketch -->
    <title>yinz-logo</title>
    <desc>Created with Sketch.</desc>
    <defs>
        <linearGradient x1="97.6564749%" y1="18.9168121%" x2="0%" y2="50%" id="linearGradient-1">
            <stop stop-color="#216684" offset="0%"></stop>
            <stop stop-color="#203A43" offset="49.7021476%"></stop>
            <stop stop-color="#0F2027" offset="100%"></stop>
        </linearGradient>
        <path d="M285.965632,287.442348 C285.753243,292.209058 285.48845,296.997286 285.171256,301.807032 C284.227936,316.110957 282.932683,328.913938 281.285498,340.215973 L269.358743,350.522442 L253.204597,355.679583 L256.688739,332.557109 L252.277057,332.557109 L251.273888,338.025121 L238.795129,348.545204 L221.616951,353.142259 L222.038499,348.596863 L216.09083,355.574513 L198.056394,353.824784 L199.098156,346.591794 L162.99712,356.479231 C163.786667,352.039906 164.503421,347.596183 165.14738,343.148061 L148.21097,360.112193 C142.919927,383.704079 134.589242,401.210319 123.218918,412.630914 C106.163431,429.761807 85.4574192,445.711628 78.9893938,444.975473 C72.5213684,444.239317 36.5750552,438.875511 18.1302997,409.125953 C-0.314455785,379.376394 -1.19047418,359.203574 0.676439259,332.265769 C2.5433527,305.327964 14.652426,276.884964 33.2920016,257.756989 C51.9315771,238.629013 79.2540803,220.800215 106.526871,221.690045 C120.323473,222.140186 132.845649,225.856306 143.287459,232.73563 L104.043266,194.124188 L150.968382,137.969466 L99.1616253,38.3880395 L161.755888,5.03866381 L190.119865,0 L206.065916,66.1989434 L241.435892,15.8753153 L274.499758,9.9363561 L305.136703,38.3880395 L199.387071,215.07341 L149.582792,237.486877 C156.892235,243.777036 162.878996,251.91435 167.179724,261.852485 C149.655326,276.96415 134.094579,291.690624 111.757011,297.265578 C102.310593,279.224803 96.7794874,272.832969 82.5638701,275.944662 C68.3482529,279.056355 50.2219229,307.023308 53.8674247,337.89369 C57.5129264,368.764073 66.9731414,374.598497 80.3747295,386.190778 C80.9680815,384.270816 82.095094,381.999355 83.7557669,379.376394 L72.5213684,381.729812 L63.6322001,347.772018 L93.8407272,328.060218 L156.872401,303.838204 L166.007242,336.872364 C166.933516,329.70669 167.671229,322.529624 168.220382,315.341165 C169.271131,301.586766 169.637962,287.706633 169.320873,273.700765 L183.536526,264.141401 L198.056394,260.176506 L195.658873,328.346471 L200.650376,326.288477 C201.74702,317.901478 202.486502,309.516382 202.868822,301.133191 C203.251142,292.75 203.251142,284.920361 202.868822,277.644273 L214.97813,267.789347 L231.91899,262.956969 L231.454147,272.376396 L238.795129,267.20842 L256.688739,260.536004 L254.113881,314.145444 L258.60467,314.145444 L261.140409,274.143946 L273.382719,264.458349 L286.610812,259.466194 C286.606204,263.382072 286.564936,267.313003 286.487008,271.258988 L305.427179,261.797613 L316.570127,260.262653 L323.111998,286.438942 L337.582504,266.152538 L350.605892,263.830454 L361.676281,274.917934 L320.312986,346.140351 L300.272752,355.684211 L281.97084,337.484838 L301.088536,315.282783 L285.965632,287.442348 Z M269.911099,145.462775 L285.340186,136.39542 L307.243465,129.356442 L313.677824,155.289024 L313.677824,147.891887 L324.521754,139.997228 L346.408407,132.705517 L339.636462,219.99375 L327.00774,230.942869 L307.243465,237.491545 L297.046513,210.386282 L298.498057,232.014458 L286.789562,240.018876 L265.549164,228.019831 L265.607227,226.441577 L253.155378,239.490302 L235.946486,231.114006 L242.251449,146.123478 L252.500449,136.777408 L270.364271,129.861187 L269.911099,145.462775 Z M339.761255,98.9878248 L411.29168,63.4079371 L570.065896,12.8302667 L605,83.6063414 L430.667824,286.686392 L511.117177,246.799217 C546.08812,231.423949 574.414008,221.27785 596.094843,216.36092 C590.893595,231.114158 580.550537,262.336741 565.065668,310.028669 L516.455943,345.862896 L386.494151,373.617255 L339.761255,325.032861 C342.831824,313.754583 352.28597,294.967153 368.123691,268.670572 C383.961412,242.373991 413.205785,198.118393 455.85681,135.903779 L393.918067,175.676828 L339.761255,98.9878248 Z" id="path-2"></path>
        <linearGradient x1="100%" y1="22.6591338%" x2="0%" y2="84.891461%" id="linearGradient-4">
            <stop stop-color="#FFDC60" offset="0%"></stop>
            <stop stop-color="#E6A400" offset="100%"></stop>
        </linearGradient>
    </defs>
    <g id="assets" stroke="none" stroke-width="1" fill="none" fill-rule="evenodd">
        <g id="yinz-logo">
            <g id="logo-copy">
                <mask id="mask-3" fill="white">
                    <use xlink:href="#path-2"></use>
                </mask>
                <use id="Combined-Shape" fill="url(#linearGradient-1)" fill-rule="nonzero" xlink:href="#path-2"></use>
                <path d="M348.620692,277.127341 L335.038094,264.833267 L349.726713,260.778501 L361.847827,273.965781 L320.800663,347.128255 L298.159545,356.222385 L348.620692,277.127341 Z M276.213974,266.684648 L258.983903,273.865578 L270.850483,261.506915 L285.939189,258.313736 L286.807888,269.010134 L285.223148,270.820365 L278.660487,274.749049 L284.850973,286.854536 L290.327934,312.352871 L280.70235,336.941743 L281.14207,343.775942 L268.435748,350.746229 C270.893063,332.871712 272.534202,319.476651 273.359163,310.561045 C274.184125,301.645439 275.135729,287.019974 276.213974,266.684648 Z M255.87209,259.743597 L254.097058,312.768899 L254.320559,312.612121 L257.43918,313.539486 L256.918504,319.948748 L242.185261,321.124564 L244.891383,267.395939 L224.977727,274.457055 L224.855704,274.54781 C225.324046,286.931183 225.324046,298.367311 224.855704,308.856193 C224.387363,319.345076 223.072295,332.398299 220.9105,348.015862 L214.846325,356.4937 L219.945814,269.785139 L200.676728,277.196675 L210.948123,265.609 L232.07141,261.218686 L231.961758,267.957035 L236.486452,263.76487 L255.87209,259.743597 Z M182.905448,337.010069 L186.341823,267.100753 L164.800905,274.090502 L182.905448,260.391325 L197.895604,258.901357 L196.958238,325.654793 L196.964712,325.649562 L199.494053,325.649562 L198.750691,328.870871 L182.905448,337.010069 Z M148.690833,358.853861 C149.343472,358.729839 150.011048,358.606067 150.693559,358.482545 C146.273168,386.67874 138.073663,407.185064 126.095045,420.001516 C114.116427,432.817968 97.2422747,441.817463 75.4725888,447 C92.6481311,431.696374 104.916817,416.943465 112.278646,402.741273 C123.321389,381.437984 128.146722,369.339706 129.944565,364.276487 C133.033305,362.510972 138.830107,360.790845 147.334973,359.116108 L137.608291,319.056518 L158.60036,301.11718 L165.249786,333.380902 L163.622865,346.55787 L148.690833,358.853861 Z M61.0788003,347.709227 L91.2966795,321.056266 L158.307551,301.331506 L137.608291,319.056518 L61.0809284,347.719388 C64.9893766,366.378031 69.2021031,376.232419 70.5352196,378.007218 C70.7670082,378.925277 71.0757389,379.972826 71.4614117,381.149865 L74.7065453,380.480068 L79.4087617,385.491273 C76.5928283,390.66662 72.9542313,396.308896 68.4929706,402.418103 C47.4546242,393.470911 35.7529949,374.037553 36.30404,349.074924 C36.8550851,324.112295 49.4645388,296.799237 63.1198323,284.722325 C76.7751259,272.645414 87.4460258,271.789766 93.2377286,275.399724 C97.0988638,277.806362 98.5117199,283.882986 97.4762967,293.629595 C68.703895,303.217981 55.7847171,317.00133 58.7187632,334.979642 C59.4735384,339.604513 60.2696357,343.845564 61.0788003,347.709227 Z M166.649162,261.080165 C170.561851,260.027735 174.702892,258.853831 179.072287,257.558455 L127.276125,300.107281 L107.625651,298.52279 C118.071814,292.229913 129.672097,281.575034 142.426499,266.558153 C131.770854,245.954403 119.532816,228.333919 84.7996456,230.737493 C61.644199,232.339876 37.7109838,245.229789 13,269.407231 L40.6612765,215.324132 L119.683736,219.392913 C130.440046,224.726944 137.916927,228.971616 142.11438,232.126929 C142.875892,232.8695 145.099361,234.950485 147.404094,237.645013 C147.430289,237.625253 147.45647,237.605795 147.482594,237.586645 L273.003016,44.7752445 L234.071343,10.2022099 L268.569927,-0.59905255 L310.515501,36.8942956 L250.642289,129.668635 L251.714751,128.359923 L271.403148,126.591764 L268.815837,144.120706 L278.828856,131.161759 L309.587177,126.538953 L308.434737,127.322897 L313.325436,137.600366 L312.515727,146.402072 L319.802124,133.583392 L351.954915,128.371665 L352.597383,127.982961 L345.994231,218.741278 L326.404195,233.056132 L332.316659,140.253145 L312.428092,147.354687 L312.205644,149.772739 L312.467276,154.817913 L308.401985,191.119322 C305.090632,181.42258 302.665852,173.252085 301.127646,166.607835 C299.58944,159.963586 297.762378,149.768334 295.646459,136.022081 L267.233113,146.199469 L267.21944,146.211461 L264.466387,225.86295 L251.714751,241.707908 L260.549939,137.048423 L240.487919,145.425785 L204.481411,223.02081 L152.960483,239.746398 C158.275752,243.045236 167.317939,248.612046 180.087044,256.446825 C175.452787,258.202745 170.973491,259.747192 166.649159,261.080166 Z M556.874697,240.574157 L429.474968,286.075801 L529.074113,225.019672 L600.219348,209.955958 L588.397592,307.28949 L511.887614,350.120643 L556.874697,240.574157 Z M536.296163,34.1476109 L323.603143,103.076396 L386.788777,62.1427605 L580.164939,4.79370234 L578.758187,5.73500233 L617.378401,77.5641488 L618,77.3080936 L617.558317,77.8987719 L617.67885,78.1229494 L617.268704,78.2860811 L496.987859,239.141792 L429.323933,286.174679 L569.57308,97.2565783 L536.296163,34.1476109 Z M184.059475,94.6895095 L156.615415,-7.85177695 L195.48473,-19 L205.108034,65.6204658 L184.059475,94.6895095 Z M287.079284,242.1648 C284.4484,233.801056 283.132957,225.394828 283.132957,216.946115 C283.132957,208.497402 283.981095,194.847903 285.677371,175.997616 L297.890338,216.946115 L301.252984,236.308379 L287.079284,242.1648 Z M237.523101,349.218686 L240.447078,333.235021 C245.77348,332.498032 249.337004,332.073895 251.13765,331.962611 C252.594329,332.947409 252.704401,335.855104 251.467864,340.685698 L237.523101,349.218686 Z M313.349091,297.478248 L303.304919,260.175041 L316.758121,257.568535 L322.762851,284.241422 L313.349091,297.478248 Z" id="Combined-Shape" fill="url(#linearGradient-4)" mask="url(#mask-3)"></path>
            </g>
        </g>
    </g>
</svg>