<?xml version="1.0" encoding="UTF-8"?>
<svg width="30px" height="30px" viewBox="0 0 30 30" version="1.1" xmlns="http://www.w3.org/2000/svg" xmlns:xlink="http://www.w3.org/1999/xlink">
    <!-- Generator: Sketch 48.2 (47327) - http://www.bohemiancoding.com/sketch -->
    <title>youtube</title>
    <desc>Created with Sketch.</desc>
    <defs></defs>
    <g id="assets" stroke="none" stroke-width="1" fill="none" fill-rule="evenodd">
        <g id="youtube" fill="#FFFFFF">
            <path d="M26.859375,9.984375 C26.9531255,11.6718834 27,13.3437417 27,15 C27,16.6562583 26.9531255,18.3281166 26.859375,20.015625 C26.859375,21.0781303 26.5234409,21.9765588 25.8515625,22.7109375 C25.1796841,23.4453162 24.3593798,23.8125 23.390625,23.8125 C20.984363,23.9375006 18.1875159,24 15,24 C11.8124841,24 9.01563703,23.9375006 6.609375,23.8125 C5.64062016,23.8125 4.82031586,23.4453162 4.1484375,22.7109375 C3.47655914,21.9765588 3.140625,21.0781303 3.140625,20.015625 C3.04687453,18.3281166 3,16.6562583 3,15 C3,13.9062445 3.06249937,12.2343863 3.1875,9.984375 C3.1875,8.92186969 3.51562172,8.02344117 4.171875,7.2890625 C4.82812828,6.55468383 5.64062016,6.1875 6.609375,6.1875 C8.89063641,6.06249938 11.5468598,6 14.578125,6 L15.421875,6 C18.4531402,6 21.1093636,6.06249938 23.390625,6.1875 C24.3593798,6.1875 25.1796841,6.55468383 25.8515625,7.2890625 C26.5234409,8.02344117 26.859375,8.92186969 26.859375,9.984375 Z M12.703125,19.59375 L19.5,15 L12.703125,10.359375 L12.703125,19.59375 Z" id="ion-social-youtube---Ionicons"></path>
        </g>
    </g>
</svg>